{"title":"U2 - All That You Can't Leave Behind [FLAC]","uid":4451366,"size":339653998,"categoryP":"audio","categoryS":"flac","magnet":"?xt=urn:btih:e744ed6bd3caee74606ef26dac580670fafc1441&amp;dn=U2+-+All+That+You+Can%5C%27t+Leave+Behind+%5BFLAC%5D&amp;tr=udp%3A%2F%2Ftracker.openbittorrent.com%3A80&amp;tr=udp%3A%2F%2Fopen.demonii.com%3A1337&amp;tr=udp%3A%2F%2Ftracker.coppersurfer.tk%3A6969&amp;tr=udp%3A%2F%2Fexodus.desync.com%3A6969","seeders":1,"leechers":0,"uploader":"Cropper","files":6,"time":1224276883,"description":"---------------------------------------------------------------------\n                U2 - All That You Can&amp;#039;t Leave Behind\n---------------------------------------------------------------------\n\n01 - Beautiful Day \t\t\t\t[4:08]\n02 - Stuck In A Moment You Can&amp;#039;t Get Out Of \t[4:32]\n03 - Elevation \t\t\t\t\t[3:47]\n04 - Walk On \t\t\t\t\t[4:56]\n05 - Kite \t\t\t\t\t[4:27]\n06 - In a Little While \t\t\t\t[3:39]\n07 - Wild Honey \t\t\t\t[3:47]\n08 - Peace on Earth \t\t\t\t[4:48]\n09 - When I Look at the World \t\t\t[4:18]\n10 - New York \t\t\t\t\t[5:30]\n11 - Grace \t\t\t\t\t[5:31]\n\n---------------------------------------------------------------------\n                              EAC Log\n---------------------------------------------------------------------\n\nExact Audio Copy V0.99 prebeta 4 from 23. January 2008\n\nEAC extraction logfile from 13. October 2008, 18:06\n\nU2 / All That You Can&amp;#039;t Leave Behind\n\nUsed drive  : PLEXTOR DVDR   PX-760A   Adapter: 1  ID: 0\n\nRead mode               : Secure\nUtilize accurate stream : Yes\nDefeat audio cache      : Yes\nMake use of C2 pointers : No\n\nRead offset correction                      : 30\nOverread into Lead-In and Lead-Out          : No\nFill up missing offset samples with silence : Yes\nDelete leading and trailing silent blocks   : No\nNull samples used in CRC calculations       : Yes\nUsed interface                              : Installed external ASPI interface\n\nUsed output format              : User Defined Encoder\nSelected bitrate                : 192 kBit/s\nQuality                         : High\nAdd ID3 tag                     : Yes\nCommand line compressor         : C:codecsflacflac.exe\nAdditional command line options : --best -T &quot;artist=%a&quot; -T &quot;title=%t&quot; -T &quot;album=%g&quot; -T &quot;date=%y&quot; -T &quot;tracknumber=%n&quot; -T &quot;genre=%m&quot; %s\n\n\nTOC of the extracted CD\n\n     Track |   Start  |  Length  | Start sector | End sector \n    ---------------------------------------------------------\n        1  |  0:00.00 |  4:08.05 |         0    |    18604   \n        2  |  4:08.05 |  4:32.22 |     18605    |    39026   \n        3  |  8:40.27 |  3:47.35 |     39027    |    56086   \n        4  | 12:27.62 |  4:56.15 |     56087    |    78301   \n        5  | 17:24.02 |  4:26.60 |     78302    |    98311   \n        6  | 21:50.62 |  3:39.13 |     98312    |   114749   \n        7  | 25:30.00 |  3:46.50 |    114750    |   131749   \n        8  | 29:16.50 |  4:48.30 |    131750    |   153379   \n        9  | 34:05.05 |  4:17.52 |    153380    |   172706   \n       10  | 38:22.57 |  5:30.20 |    172707    |   197476   \n       11  | 43:53.02 |  5:30.43 |    197477    |   222269   \n\n\nRange status and errors\n\nSelected range\n\n     Filename E:ripU2 - All That You Can&amp;#039;t Leave BehindU2 - All That You Can&amp;#039;t Leave Behind.wav\n\n     Peak level 100.0 %\n     Range quality 100.0 %\n     Test CRC D519F896\n     Copy CRC D519F896\n     Copy OK\n\nNo errors occurred\n \n\nEnd of status report\n\n---------------------------------------------------------------------\n                             arcue Log\n---------------------------------------------------------------------\n\nChecking AccurateRip database\n\nTrack   Ripping Status          [Disc ID: 0013926b-7e0b930b]\n\n 1      Accurately Ripped    (confidence 200)     [49febe53]\n 2      Accurately Ripped    (confidence 200)     [6d48416b]\n 3      Accurately Ripped    (confidence 200)     [cba6d212]\n 4      Accurately Ripped    (confidence 200)     [63b4c478]\n 5      Accurately Ripped    (confidence 200)     [6fdfca7e]\n 6      Accurately Ripped    (confidence 200)     [6dc7ab88]\n 7      Accurately Ripped    (confidence 200)     [9da2db5c]\n 8      Accurately Ripped    (confidence 200)     [b90edca8]\n 9      Accurately Ripped    (confidence 200)     [3d1dd994]\n 10     Accurately Ripped    (confidence 200)     [7035cb2c]\n 11     Accurately Ripped    (confidence 200)     [a0cd0da7]\n\n_______________________\n\nAll Tracks Accurately Ripped.\n","torrent":{"xt":"urn:btih:e744ed6bd3caee74606ef26dac580670fafc1441","amp;dn":"U2+-+All+That+You+Can%5C%27t+Leave+Behind+%5BFLAC%5D","amp;tr":["udp%3A%2F%2Ftracker.openbittorrent.com%3A80","udp%3A%2F%2Fopen.demonii.com%3A1337","udp%3A%2F%2Ftracker.coppersurfer.tk%3A6969","udp%3A%2F%2Fexodus.desync.com%3A6969"],"infoHash":"e744ed6bd3caee74606ef26dac580670fafc1441","infoHashBuffer":{"type":"Buffer","data":[231,68,237,107,211,202,238,116,96,110,242,109,172,88,6,112,250,252,20,65]},"announce":[],"urlList":[]}}